<?xml version="1.0" encoding="UTF-8" standalone="no"?>
<svg
   fill="none"
   viewBox="0 0 128 128"
   version="1.1"
   id="svg1"
   sodipodi:docname="favicon.svg"
   inkscape:version="1.3 (0e150ed6c4, 2023-07-21)"
   xmlns:inkscape="http://www.inkscape.org/namespaces/inkscape"
   xmlns:sodipodi="http://sodipodi.sourceforge.net/DTD/sodipodi-0.dtd"
   xmlns="http://www.w3.org/2000/svg"
   xmlns:svg="http://www.w3.org/2000/svg">
  <defs
     id="defs1" />
  <sodipodi:namedview
     id="namedview1"
     pagecolor="#ffffff"
     bordercolor="#000000"
     borderopacity="0.25"
     inkscape:showpageshadow="2"
     inkscape:pageopacity="0.0"
     inkscape:pagecheckerboard="0"
     inkscape:deskcolor="#d1d1d1"
     inkscape:zoom="2.8166762"
     inkscape:cx="67.100365"
     inkscape:cy="65.502737"
     inkscape:window-width="1366"
     inkscape:window-height="697"
     inkscape:window-x="-8"
     inkscape:window-y="-8"
     inkscape:window-maximized="1"
     inkscape:current-layer="svg1" />
  <style
     id="style1">&#10;        path { fill: #000; }&#10;        @media (prefers-color-scheme: dark) {&#10;            path { fill: #FFF; }&#10;        }&#10;    </style>
  <path
     style="fill:#ec4699;fill-opacity:1;stroke-width:2.56606"
     d="M 50.510344,113.14379 C 44.971303,111.94462 34.987567,107.14347 30.31747,103.43308 18.500363,94.044361 11.13203,78.535671 11.13203,63.051954 c 0,-8.143385 1.241664,-13.681964 4.776588,-21.3068 C 27.195809,17.398807 54.33654,6.0254748 79.71614,15.006599 c 7.62443,2.698056 12.40155,5.775299 18.62134,11.995064 11.0231,11.023143 15.80233,23.250127 15.11178,38.661537 -0.52312,11.675153 -3.694,19.951461 -11.54693,30.138691 -5.98736,7.767089 -17.82589,15.067319 -28.10272,17.329559 -5.98292,1.317 -17.23527,1.32298 -23.289266,0.0128 z M 71.85792,98.601531 c 9.26991,-2.37083 15.99529,-7.30639 21.44465,-15.73761 3.61542,-5.593774 5.62273,-12.328085 5.69492,-19.105814 0.0726,-6.82438 -0.67307,-7.570666 -6.95003,-6.95494 -8.01526,0.786214 -18.16128,5.660774 -23.64936,11.362145 -3.87059,4.020987 -8.14323,10.876669 -9.53981,15.307129 -1.04115,3.30285 -1.05703,3.87949 -0.15139,5.50052 0.70615,1.26409 1.66437,1.87459 3.17362,2.02187 1.89393,0.18476 2.21089,-0.0257 2.55572,-1.69734 1.5471,-7.50048 3.32086,-11.2855 7.32368,-15.628036 4.96709,-5.38867 11.29656,-8.906531 18.0582,-10.036572 l 2.98456,-0.498815 -0.35294,4.397068 c -0.69882,8.705531 -8.15696,18.897195 -16.95605,23.170705 -11.42694,5.54975 -25.7041,3.06575 -34.829644,-6.05982 C 34.054754,78.032751 30.48257,67.470423 32.034419,59.125783 34.507047,45.829907 44.721189,35.51302 57.55109,33.352477 c 7.21779,-1.215491 17.07286,0.467484 19.69332,3.363075 1.02103,1.128219 0.87954,1.423469 -2.11949,4.422499 -3.70077,3.700768 -9.79513,6.910316 -14.94623,7.871279 -2.6491,0.494223 -5.01547,0.410723 -9.165655,-0.323375 -7.885419,-1.39478 -11.071308,-1.308817 -12.723414,0.343288 -2.350996,2.350997 -1.674558,3.083504 4.634866,5.018952 11.093603,3.40303 21.576803,2.162802 30.507173,-3.609186 5.1362,-3.319683 8.96054,-7.090043 11.38113,-11.220498 l 1.85169,-3.159639 -1.50035,-1.597038 C 83.12781,32.294285 76.13921,28.937163 70.83381,27.577974 67.64345,26.760659 64.60657,26.544135 59.51161,26.770718 52.97317,27.061529 52.19188,27.257396 46.683428,29.986964 29.78065,38.362602 21.252126,58.450807 27.488981,75.197773 34.489546,93.995511 52.57258,103.53393 71.85804,98.601531 Z"
     id="path1-1"
     inkscape:export-filename="nomelogocida.png"
     inkscape:export-xdpi="387.4454"
     inkscape:export-ydpi="387.4454" />
</svg>
